HIERARCHY
ROOT Hips
{
 OFFSET 0.000000 0.000000 0.000000
 CHANNELS 6 Xposition Yposition Zposition Yrotation Xrotation Zrotation
 JOINT Chest
 {
  OFFSET 0.000000 10.354800 0.006500
  CHANNELS 3 Yrotation Xrotation Zrotation
  JOINT Chest2
  {
   OFFSET 0.000000 10.435800 -0.013200
   CHANNELS 3 Yrotation Xrotation Zrotation
   JOINT Chest3
   {
    OFFSET 0.000000 10.393700 0.000000
    CHANNELS 3 Yrotation Xrotation Zrotation
    JOINT Chest4
    {
     OFFSET 0.000000 10.383100 0.000000
     CHANNELS 3 Yrotation Xrotation Zrotation
     JOINT Neck
     {
      OFFSET 0.000000 15.694000 0.000000
      CHANNELS 3 Yrotation Xrotation Zrotation
      JOINT Head
      {
       OFFSET 0.000000 9.711000 -0.028000
       CHANNELS 3 Yrotation Xrotation Zrotation
       End Site
       {
        OFFSET 0.000000 18.578700 -0.014800
       }
      }
     }
     JOINT RightCollar
     {
      OFFSET -3.157200 10.367500 0.000000
      CHANNELS 3 Yrotation Xrotation Zrotation
      JOINT RightShoulder
      {
       OFFSET -14.482500 0.000000 0.000000
       CHANNELS 3 Yrotation Xrotation Zrotation
       JOINT RightElbow
       {
        OFFSET 0.000000 -31.707800 0.000000
        CHANNELS 3 Yrotation Xrotation Zrotation
        JOINT RightWrist
        {
         OFFSET 0.000000 -25.659300 0.000000
         CHANNELS 3 Yrotation Xrotation Zrotation
         End Site
         {
          OFFSET 0.000000 -18.994300 0.000000
         }
        }
       }
      }
     }
     JOINT LeftCollar
     {
      OFFSET 3.157200 10.367500 0.000000
      CHANNELS 3 Yrotation Xrotation Zrotation
      JOINT LeftShoulder
      {
       OFFSET 14.482500 0.000000 0.000000
       CHANNELS 3 Yrotation Xrotation Zrotation
       JOINT LeftElbow
       {
        OFFSET 0.000000 -31.707800 0.000000
        CHANNELS 3 Yrotation Xrotation Zrotation
        JOINT LeftWrist
        {
         OFFSET 0.000000 -25.659300 0.000000
         CHANNELS 3 Yrotation Xrotation Zrotation
         End Site
         {
          OFFSET 0.000000 -18.994300 0.000000
         }
        }
       }
      }
     }
    }
   }
  }
 }
 JOINT RightHip
 {
  OFFSET -8.365600 -0.032100 -0.003200
  CHANNELS 3 Yrotation Xrotation Zrotation
  JOINT RightKnee
  {
   OFFSET 0.000000 -43.980000 0.003100
   CHANNELS 3 Yrotation Xrotation Zrotation
   JOINT RightAnkle
   {
    OFFSET 0.000000 -42.882800 0.005200
    CHANNELS 3 Yrotation Xrotation Zrotation
    JOINT RightToe
    {
     OFFSET 0.000000 -4.915500 10.826300
     CHANNELS 3 Yrotation Xrotation Zrotation
     End Site
     {
      OFFSET 0.000000 -1.517500 6.175900
     }
    }
   }
  }
 }
 JOINT LeftHip
 {
  OFFSET 8.365600 -0.032100 -0.003200
  CHANNELS 3 Yrotation Xrotation Zrotation
  JOINT LeftKnee
  {
   OFFSET 0.000000 -43.980000 0.003100
   CHANNELS 3 Yrotation Xrotation Zrotation
   JOINT LeftAnkle
   {
    OFFSET 0.000000 -42.882800 0.005200
    CHANNELS 3 Yrotation Xrotation Zrotation
    JOINT LeftToe
    {
     OFFSET 0.000000 -4.915500 10.826300
     CHANNELS 3 Yrotation Xrotation Zrotation
     End Site
     {
      OFFSET 0.000000 -1.517500 6.175900
     }
    }
   }
  }
 }
}
MOTION
Frames: 15
Frame Time: 0.008333
0.000000 91.618600 0.000000 0.000000 -5.767877 0.000000 0.000000 11.653817 0.000000 0.000000 -5.885947 0.000000 0.000000 -0.000000 0.000000 0.000000 -0.000000 0.000000 0.000000 12.528835 0.000000 0.000000 0.711642 0.000000 0.000000 -0.000000 0.000000 0.000000 0.000000 -90.000000 0.000000 -2.309062 0.000000 0.000000 2.309062 0.000000 0.000000 -0.000000 0.000000 0.000000 -0.000000 90.000000 0.000000 -2.309062 0.000000 0.000000 2.309062 0.000000 0.000000 8.520406 0.000000 0.000000 1.905762 0.000000 -0.000000 -4.658285 0.000000 0.000000 -0.000000 0.000000 0.000000 8.520406 0.000000 0.000000 1.905762 0.000000 -0.000000 -4.658285 0.000000 0.000000 -0.000000 0.000000
-5.746071 127.264193 37.283027 174.633772 -36.107539 -5.864766 -1.780234 14.673301 1.974634 -0.182614 1.318571 0.194594 -0.305369 2.223092 0.325613 -1.633445 13.062854 1.766365 2.219637 22.966973 -3.524938 3.214478 -0.942466 -4.331041 1.311884 8.833775 -5.441264 -12.203501 -10.469207 0.340812 -116.319167 -53.539503 147.433007 -29.154909 -31.298504 -16.958166 -1.305479 8.126810 0.678774 -16.088457 -22.611970 -0.966828 67.584339 -53.793318 -106.104829 25.218822 -7.086668 9.977073 7.884135 -46.663993 7.978123 -101.506471 81.691496 -94.999913 2.788052 -7.790091 -13.832482 0.021525 0.013763 0.009775 -12.885622 -45.333860 8.387909 93.331232 82.883780 86.448651 -9.797527 -7.957870 2.786048 -0.019704 0.025039 -0.008949
-5.749494 127.268860 37.300101 174.671712 -36.283070 -5.883804 -1.919819 14.762724 1.923869 -0.194747 1.342864 0.194605 -0.325551 2.262437 0.325162 -1.735926 13.163474 1.734365 2.269858 22.973329 -3.458771 3.253593 -0.936295 -4.270539 1.247122 8.976079 -5.434359 -11.304155 -10.531214 0.754072 -114.570437 -53.969356 144.605126 -28.746088 -32.525435 -20.744875 -1.605170 8.185194 0.496036 -17.042382 -23.121235 -0.868424 64.988093 -53.274927 -102.317723 25.301541 -6.908373 10.235906 7.855772 -46.486997 8.007604 -101.700370 81.696401 -95.196107 2.789412 -7.818653 -13.828195 0.010168 0.007908 0.004617 -12.879237 -45.156952 8.336543 93.025867 82.972954 86.168269 -9.717723 -7.895442 2.738059 -0.001124 0.010453 -0.000510
-5.750791 127.275286 37.319132 174.677055 -36.496919 -5.894008 -2.047016 14.897311 1.868021 -0.208043 1.370072 0.193408 -0.347639 2.306487 0.322724 -1.846643 13.275267 1.688251 2.333141 22.956244 -3.405058 3.309669 -0.956808 -4.226491 1.245172 9.073597 -5.381557 -10.509687 -10.634135 1.162073 -112.874219 -54.326955 141.898893 -28.370124 -33.519515 -24.452404 -1.906191 8.252574 0.310965 -17.737377 -23.449562 -0.808824 63.016192 -52.608404 -99.505938 25.555414 -6.851258 10.124910 7.844509 -46.281213 8.054305 -101.778824 81.695677 -95.271088 2.786965 -7.831815 -13.828027 0.008887 0.004728 0.004035 -12.843932 -44.940834 8.297602 92.892709 82.998792 86.033866 -9.696967 -7.869644 2.725074 -0.007011 0.005781 -0.003184
-5.751654 127.280130 37.343201 174.661406 -36.710621 -5.892679 -2.178284 15.040497 1.797965 -0.222100 1.399664 0.191471 -0.370986 2.354347 0.319005 -1.961437 13.395552 1.633363 2.408718 22.914741 -3.365795 3.382403 -1.005104 -4.200943 1.313268 9.133070 -5.286637 -9.845000 -10.726696 1.550328 -111.241956 -54.589528 139.360167 -28.084009 -34.326980 -27.771336 -2.207846 8.327772 0.120197 -18.049946 -23.582527 -0.744876 61.622286 -51.757463 -97.790794 25.857561 -6.987551 9.936511 7.855032 -46.089540 8.092212 -101.886051 81.695779 -95.369586 2.790199 -7.828439 -13.825124 0.004758 -0.000864 0.002160 -12.827310 -44.725996 8.283298 92.797764 83.020666 85.916245 -9.672962 -7.842169 2.710459 -0.016059 -0.000288 -0.007291
-5.749524 127.283640 37.371628 174.632536 -36.916148 -5.896904 -2.313027 15.183328 1.732587 -0.236108 1.430259 0.189174 -0.394225 2.403770 0.314586 -2.072982 13.518360 1.575177 2.489163 22.854856 -3.342197 3.464049 -1.074153 -4.193521 1.433295 9.164553 -5.164821 -9.236595 -10.758908 1.912267 -109.769358 -54.695547 137.057541 -27.834440 -34.983055 -30.479206 -2.493732 8.411571 -0.068090 -18.050583 -23.551974 -0.624448 60.718888 -50.856055 -97.023544 26.209258 -7.354188 9.789422 7.856179 -45.904645 8.155435 -101.896432 81.693653 -95.375215 2.795617 -7.820353 -13.823182 0.001647 -0.001570 0.000748 -12.901256 -44.506124 8.355244 92.522051 83.071167 85.582206 -9.620381 -7.787633 2.662351 -0.008170 -0.005019 -0.003709
-5.746972 127.288459 37.399462 174.573758 -37.134262 -5.878947 -2.434051 15.347438 1.659726 -0.249452 1.462063 0.186827 -0.416294 2.455152 0.310120 -2.174856 13.644710 1.518023 2.564852 22.777049 -3.335232 3.544283 -1.163731 -4.202983 1.579886 9.163929 -5.036783 -8.618831 -10.705858 2.264823 -108.594078 -54.645876 135.094082 -27.610683 -35.460299 -32.392706 -2.735102 8.481618 -0.238598 -17.900437 -23.403469 -0.437444 60.181953 -50.111740 -96.892176 26.589483 -7.888345 9.705173 7.880055 -45.704431 8.219251 -101.887152 81.692993 -95.363770 2.802168 -7.827754 -13.819953 -0.000105 0.001984 -0.000048 -12.872567 -44.278195 8.381883 92.417764 83.095503 85.438464 -9.624205 -7.760743 2.655660 -0.018694 -0.006589 -0.008487
-5.742405 127.293210 37.428744 174.500639 -37.343346 -5.857494 -2.542518 15.519544 1.599120 -0.261573 1.496011 0.184958 -0.436241 2.509942 0.306365 -2.260908 13.778557 1.466531 2.625243 22.677554 -3.345920 3.611831 -1.278746 -4.227836 1.718685 9.129959 -4.926435 -8.022739 -10.571880 2.635772 -107.809479 -54.554504 133.567881 -27.460004 -35.752961 -33.433566 -2.912431 8.503263 -0.376439 -17.668660 -23.175971 -0.254805 59.859161 -49.688005 -97.102050 26.914946 -8.469131 9.662384 7.907338 -45.515307 8.290608 -101.849720 81.694223 -95.326793 2.818974 -7.824379 -13.819827 -0.002726 0.009079 -0.001238 -12.822239 -44.062625 8.399047 92.200406 83.113542 85.213619 -9.576913 -7.717800 2.620088 -0.017013 -0.008913 -0.007724
-5.736211 127.298343 37.458759 174.408112 -37.543907 -5.826740 -2.623530 15.697378 1.560171 -0.272348 1.532101 0.183962 -0.453801 2.568033 0.304109 -2.329913 13.919456 1.424775 2.663211 22.559675 -3.374253 3.658935 -1.415590 -4.266467 1.817285 9.083778 -4.854954 -7.544248 -10.377841 3.037198 -107.393140 -54.567755 132.505957 -27.414164 -35.918237 -33.702840 -3.017612 8.468804 -0.473518 -17.342883 -22.906467 -0.166399 59.630450 -49.637413 -97.477395 27.146950 -8.990790 9.646747 7.929262 -45.341718 8.379026 -101.734153 81.687769 -95.218389 2.839293 -7.801225 -13.826683 -0.002362 0.010889 -0.001073 -12.781229 -43.848557 8.442381 91.978002 83.127134 84.972958 -9.540545 -7.686442 2.580432 -0.011607 -0.009595 -0.005269
-5.729536 127.304702 37.488158 174.311268 -37.740859 -5.788795 -2.684500 15.875765 1.541537 -0.281810 1.569224 0.184256 -0.469087 2.627645 0.304172 -2.383367 14.062561 1.397033 2.675282 22.434800 -3.418393 3.681411 -1.560885 -4.316193 1.861487 9.059593 -4.830118 -7.252575 -10.148081 3.452421 -107.270805 -54.771744 131.879458 -27.462059 -36.013229 -33.417828 -3.043472 8.400673 -0.530036 -16.985569 -22.621666 -0.182472 59.482937 -49.899452 -97.943385 27.311841 -9.410345 9.646347 7.899258 -45.173137 8.502548 -101.634015 81.682533 -95.156113 2.820994 -7.778061 -13.835421 -0.003023 0.007846 -0.001372 -12.751050 -43.633238 8.492386 91.675176 83.138162 84.671020 -9.564968 -7.657386 2.510689 0.003502 -0.009141 0.001590
-5.722059 127.312890 37.516235 174.214103 -37.938570 -5.747778 -2.725200 16.048390 1.544889 -0.289498 1.604825 0.186102 -0.481421 2.684715 0.306844 -2.419731 14.198130 1.386496 2.659375 22.319651 -3.474185 3.676285 -1.695039 -4.372074 1.847962 9.085481 -4.845194 -7.140456 -9.906645 3.856053 -107.403863 -55.181294 131.652980 -27.519959 -36.072404 -32.838066 -3.005370 8.331047 -0.553028 -16.724071 -22.334437 -0.243896 59.498520 -50.370589 -98.464465 27.470060 -9.737341 9.622538 7.919999 -44.995043 8.584381 -101.427716 81.667193 -94.931576 2.813660 -7.759230 -13.876290 0.006727 0.007825 0.003055 -12.701722 -43.419946 8.527636 91.433920 83.159249 84.416465 -9.564550 -7.639204 2.471283 0.001132 -0.011259 0.000514
-5.716583 127.322011 37.543218 174.120753 -38.131856 -5.691430 -2.752252 16.205546 1.553071 -0.295124 1.636480 0.189127 -0.490348 2.735439 0.311548 -2.439396 14.317527 1.391040 2.620495 22.226372 -3.536162 3.647878 -1.803790 -4.429464 1.785818 9.159810 -4.883830 -7.136474 -9.665498 4.226787 -107.791139 -55.746908 131.800476 -27.471894 -36.108145 -32.210422 -2.939157 8.282494 -0.553725 -16.596136 -22.060409 -0.301703 59.706614 -50.943203 -99.003734 27.678795 -9.986506 9.529018 7.924213 -44.817151 8.661757 -101.296919 81.650655 -94.817089 2.824719 -7.756763 -13.905209 0.010845 0.011336 0.004925 -12.654925 -43.214463 8.544900 91.172423 83.181583 84.138866 -9.580320 -7.605291 2.432874 -0.003271 -0.012555 -0.001485
-5.713519 127.330005 37.571227 174.022988 -38.305919 -5.614532 -2.759256 16.332292 1.565426 -0.299138 1.664149 0.192736 -0.496692 2.779844 0.317248 -2.447779 14.421040 1.404120 2.567442 22.153723 -3.600156 3.604616 -1.888562 -4.485875 1.697618 9.256104 -4.930524 -7.158765 -9.421719 4.548425 -108.447699 -56.386415 132.298984 -27.267837 -36.116997 -31.695806 -2.868202 8.259239 -0.543501 -16.525803 -21.818919 -0.351476 60.019951 -51.513911 -99.536659 27.927352 -10.166599 9.381372 7.868967 -44.675147 8.744766 -101.305584 81.647307 -94.885915 2.849984 -7.724790 -13.944793 0.010019 0.001913 0.004549 -12.617866 -43.030908 8.554394 90.887915 83.202143 83.826825 -9.590010 -7.568000 2.389638 -0.006799 -0.014098 -0.003086
-5.710554 127.340001 37.596178 173.951356 -38.489444 -5.547653 -2.764951 16.459308 1.588007 -0.302336 1.689174 0.196517 -0.501720 2.819964 0.323180 -2.451161 14.513781 1.420521 2.507831 22.096666 -3.661861 3.553758 -1.955259 -4.538372 1.607074 9.357070 -4.975348 -7.162858 -9.173851 4.818581 -109.354943 -57.028926 133.098874 -26.934216 -36.108506 -31.334221 -2.797655 8.257325 -0.529964 -16.428706 -21.616513 -0.403117 60.340808 -52.003959 -100.065735 28.156818 -10.294739 9.232028 7.895367 -44.507207 8.768209 -101.278087 81.638857 -94.853704 2.849593 -7.735610 -13.979457 0.013842 0.004907 0.006285 -12.614145 -42.834409 8.566376 90.688518 83.216827 83.560329 -9.518146 -7.543256 2.363223 -0.011850 -0.015117 -0.005379
-5.706843 127.350402 37.619634 173.901328 -38.672617 -5.495001 -2.766938 16.579254 1.618582 -0.305151 1.712190 0.200282 -0.506020 2.856800 0.329074 -2.452564 14.598363 1.438159 2.461948 22.033735 -3.753662 3.489953 -1.982895 -4.533451 1.530524 9.457884 -5.012631 -7.147145 -8.922456 5.047012 -110.436913 -57.628197 134.121121 -26.538448 -36.102262 -31.080139 -2.731470 8.270005 -0.513365 -16.257333 -21.440859 -0.463516 60.625100 -52.378181 -100.592517 28.336072 -10.379405 9.080085 7.899218 -44.337447 8.794780 -101.276791 81.629169 -94.848884 2.826517 -7.778462 -14.007646 0.026900 0.008888 0.012215 -12.639292 -42.632669 8.587729 90.430016 83.235211 83.229676 -9.455510 -7.505882 2.343730 -0.034966 -0.025317 -0.015870
